# xmcd
#
# Track frame offsets:
# 150
# 13709
# 28559
# 50236
# 62969
# 74470
# 90664
# 110322
# 129044
#
# Disc length: 1968 seconds
#
# Revision: 0
# Processed by: cddbd v1.5.1PL0 Copyright (c) Steve Scherf et al.
# Submitted via: Audion 3.0.2 (http://www.panic.com/audion/)
#
DISCID=7607ae09
DTITLE=Brody Lowe Band - Everyday Afterwards
DYEAR=1900
DGENRE=
TTITLE0=insanity
TTITLE1=22 shell
TTITLE2=place called home
TTITLE3=laugh out loud
TTITLE4=got it all figured out
TTITLE5=paper cut from a photograph
TTITLE6=sister
TTITLE7=sweat
TTITLE8=daddy
EXTD=
EXTT0=
EXTT1=
EXTT2=
EXTT3=
EXTT4=
EXTT5=
EXTT6=
EXTT7=
EXTT8=
PLAYORDER=
